M48
;Layer_Color=9474304
;FILE_FORMAT=4:4
METRIC,LZ
;TYPE=PLATED
T1F00S00C0.4000
T2F00S00C0.5000
T3F00S00C0.6000
T4F00S00C0.9000
T5F00S00C1.1000
T6F00S00C2.5000
%
T01
X00081Y00101
X0024125Y001375
X00237512Y00179759
X0023125Y002015
X002635Y00202
X0025575Y0021425
X00279Y0022675
X0027125Y00237
X00286Y0026575
Y0027785
X0030325Y0030325
X00295Y00327
X00263Y00321
X0025Y00332
X0025175Y0029725
X0028325Y003585
X0028575Y00176
X00352Y00172
X0026Y00083
X00368Y00239
X00281Y00407
X0026675Y0041575
X00236Y0047
X00119Y00395
T02
X0016125Y0012
Y00135
T03
X00138Y0012725
X00135Y0019175
X0014825Y00241
X00135Y0029475
T04
X00135Y002187
Y002675
T05
X00037Y000786
Y00104
X00054Y00181
Y002064
Y002318
Y002572
Y002826
Y00308
X003569Y00367
X004331
X004334Y002588
Y002334
Y00208
Y001826
Y001572
X00408
Y001826
Y00208
Y002334
Y002588
X00396Y00104
Y000786
Y000532
X00443Y00079
Y001044
X00308Y00433
Y004838
X00168Y00464
X001426
X00108Y00464
X000826
T06
X0003Y0003
X0045
X0045Y0048
X0003
M30
