G04 Layer_Physical_Order=2*
G04 Layer_Color=16711680*
%FSLAX44Y44*%
%MOMM*%
G71*
G01*
G75*
%ADD17C,0.2000*%
%ADD18C,0.5000*%
%ADD19C,0.4000*%
%ADD21C,3.0000*%
%ADD22C,2.0000*%
%ADD23R,1.8000X1.8000*%
%ADD24C,1.6000*%
%ADD25C,1.0000*%
%ADD26R,1.8000X1.8000*%
%ADD27C,0.8000*%
%ADD28O,0.3000X1.3000*%
%ADD29R,1.8000X1.7000*%
%ADD30C,0.3000*%
G36*
X470000Y501910D02*
X470731Y501764D01*
X471350Y501350D01*
X471764Y500731D01*
X471910Y500000D01*
X471931D01*
Y10000D01*
X471910D01*
X471764Y9269D01*
X471350Y8650D01*
X470731Y8236D01*
X470000Y8090D01*
Y8069D01*
X373200D01*
X373097Y8056D01*
X369892Y8371D01*
X366712Y9336D01*
X363781Y10903D01*
X361211Y13011D01*
X359103Y15581D01*
X357536Y18512D01*
X356571Y21692D01*
X356368Y23757D01*
X356302Y25000D01*
X356302D01*
X355895Y30178D01*
X354682Y35229D01*
X352694Y40028D01*
X349980Y44457D01*
X346607Y48407D01*
X342657Y51780D01*
X338228Y54494D01*
X333429Y56482D01*
X328378Y57694D01*
X323200Y58102D01*
Y58069D01*
X163200D01*
Y58102D01*
X158022Y57694D01*
X152971Y56482D01*
X148172Y54494D01*
X143743Y51780D01*
X139793Y48407D01*
X136420Y44457D01*
X133706Y40028D01*
X131718Y35229D01*
X130506Y30178D01*
X130098Y25000D01*
X130098D01*
X130032Y23757D01*
X129829Y21692D01*
X128864Y18512D01*
X127297Y15581D01*
X125189Y13011D01*
X122619Y10903D01*
X119688Y9336D01*
X116508Y8371D01*
X113303Y8056D01*
X113200Y8069D01*
X10000D01*
Y8090D01*
X9269Y8236D01*
X8650Y8650D01*
X8236Y9269D01*
X8090Y10000D01*
X8069D01*
Y500000D01*
X8090D01*
X8236Y500731D01*
X8650Y501350D01*
X9269Y501764D01*
X10000Y501910D01*
Y501931D01*
X470000D01*
Y501910D01*
D02*
G37*
%LPC*%
G36*
X308000Y495904D02*
X304867Y495491D01*
X301948Y494282D01*
X299442Y492359D01*
X297518Y489852D01*
X296309Y486933D01*
X295897Y483800D01*
X296309Y480667D01*
X297518Y477748D01*
X299442Y475242D01*
X301948Y473318D01*
X304867Y472109D01*
X308000Y471697D01*
X311133Y472109D01*
X314052Y473318D01*
X316559Y475242D01*
X318482Y477748D01*
X319691Y480667D01*
X320104Y483800D01*
X319691Y486933D01*
X318482Y489852D01*
X316559Y492359D01*
X314052Y494282D01*
X311133Y495491D01*
X308000Y495904D01*
D02*
G37*
G36*
X154140Y475540D02*
X143870D01*
Y465270D01*
X154140D01*
Y475540D01*
D02*
G37*
G36*
X141330D02*
X131060D01*
Y465270D01*
X141330D01*
Y475540D01*
D02*
G37*
G36*
X94140Y475540D02*
X83870D01*
Y465270D01*
X94140D01*
Y475540D01*
D02*
G37*
G36*
X81330D02*
X71060D01*
Y465270D01*
X81330D01*
Y475540D01*
D02*
G37*
G36*
X450000Y497082D02*
X446667Y496754D01*
X443463Y495782D01*
X440509Y494203D01*
X437921Y492079D01*
X435797Y489491D01*
X434218Y486537D01*
X433246Y483333D01*
X432918Y480000D01*
X433246Y476668D01*
X434218Y473463D01*
X435797Y470510D01*
X437921Y467921D01*
X440509Y465797D01*
X443463Y464218D01*
X446667Y463246D01*
X450000Y462918D01*
X453332Y463246D01*
X456537Y464218D01*
X459490Y465797D01*
X462079Y467921D01*
X464203Y470510D01*
X465782Y473463D01*
X466754Y476668D01*
X467082Y480000D01*
X466754Y483333D01*
X465782Y486537D01*
X464203Y489491D01*
X462079Y492079D01*
X459490Y494203D01*
X456537Y495782D01*
X453332Y496754D01*
X450000Y497082D01*
D02*
G37*
G36*
X30000D02*
X26668Y496754D01*
X23463Y495782D01*
X20510Y494203D01*
X17921Y492079D01*
X15797Y489491D01*
X14218Y486537D01*
X13246Y483333D01*
X12918Y480000D01*
X13246Y476668D01*
X14218Y473463D01*
X15797Y470510D01*
X17921Y467921D01*
X20510Y465797D01*
X23463Y464218D01*
X26668Y463246D01*
X30000Y462918D01*
X33333Y463246D01*
X36537Y464218D01*
X39491Y465797D01*
X42079Y467921D01*
X44204Y470510D01*
X45782Y473463D01*
X46754Y476668D01*
X47083Y480000D01*
X46754Y483333D01*
X45782Y486537D01*
X44204Y489491D01*
X42079Y492079D01*
X39491Y494203D01*
X36537Y495782D01*
X33333Y496754D01*
X30000Y497082D01*
D02*
G37*
G36*
X179000Y475000D02*
X157000D01*
Y453000D01*
X179000D01*
Y475000D01*
D02*
G37*
G36*
X119000Y475000D02*
X97000D01*
Y453000D01*
X119000D01*
Y475000D01*
D02*
G37*
G36*
X154140Y462730D02*
X143870D01*
Y452460D01*
X154140D01*
Y462730D01*
D02*
G37*
G36*
X141330D02*
X131060D01*
Y452460D01*
X141330D01*
Y462730D01*
D02*
G37*
G36*
X94140Y462730D02*
X83870D01*
Y452460D01*
X94140D01*
Y462730D01*
D02*
G37*
G36*
X81330D02*
X71060D01*
Y452460D01*
X81330D01*
Y462730D01*
D02*
G37*
G36*
X308000Y445104D02*
X304867Y444691D01*
X301948Y443482D01*
X299442Y441559D01*
X297518Y439052D01*
X296309Y436133D01*
X295897Y433000D01*
X296309Y429868D01*
X297518Y426948D01*
X299442Y424442D01*
X301948Y422518D01*
X304867Y421309D01*
X308000Y420897D01*
X311133Y421309D01*
X314052Y422518D01*
X316559Y424442D01*
X318482Y426948D01*
X319691Y429868D01*
X320104Y433000D01*
X319691Y436133D01*
X318482Y439052D01*
X316559Y441559D01*
X314052Y443482D01*
X311133Y444691D01*
X308000Y445104D01*
D02*
G37*
G36*
X266750Y421868D02*
X264409Y421402D01*
X262424Y420076D01*
X261098Y418091D01*
X260725Y416213D01*
X244100Y399588D01*
X122933D01*
X121341Y400652D01*
X119000Y401118D01*
X116659Y400652D01*
X114674Y399326D01*
X113348Y397341D01*
X112882Y395000D01*
X113348Y392659D01*
X114674Y390674D01*
X116659Y389348D01*
X119000Y388882D01*
X121341Y389348D01*
X122933Y390412D01*
X246000D01*
X247756Y390761D01*
X249244Y391756D01*
X267213Y409725D01*
X269091Y410098D01*
X271076Y411424D01*
X272402Y413409D01*
X272868Y415750D01*
X272402Y418091D01*
X271076Y420076D01*
X269091Y421402D01*
X266750Y421868D01*
D02*
G37*
G36*
X434370Y379481D02*
Y368270D01*
X445581D01*
X445317Y370274D01*
X444054Y373324D01*
X442044Y375944D01*
X439424Y377954D01*
X436374Y379217D01*
X434370Y379481D01*
D02*
G37*
G36*
X431830D02*
X429827Y379217D01*
X426776Y377954D01*
X424156Y375944D01*
X422146Y373324D01*
X420883Y370274D01*
X420619Y368270D01*
X431830D01*
Y379481D01*
D02*
G37*
G36*
X445581Y365730D02*
X434370D01*
Y354519D01*
X436374Y354783D01*
X439424Y356046D01*
X442044Y358056D01*
X444054Y360676D01*
X445317Y363727D01*
X445581Y365730D01*
D02*
G37*
G36*
X431830D02*
X420619D01*
X420883Y363727D01*
X422146Y360676D01*
X424156Y358056D01*
X426776Y356046D01*
X429827Y354783D01*
X431830Y354519D01*
Y365730D01*
D02*
G37*
G36*
X356900Y379104D02*
X353768Y378691D01*
X350848Y377482D01*
X348342Y375559D01*
X346418Y373052D01*
X345209Y370133D01*
X345199Y370059D01*
X334000D01*
X332830Y369826D01*
X331837Y369163D01*
X331837Y369163D01*
X295660Y332986D01*
X295000Y333117D01*
X292659Y332652D01*
X290674Y331326D01*
X289858Y330104D01*
X288588Y330490D01*
Y355689D01*
X288902Y356159D01*
X289368Y358500D01*
X288902Y360841D01*
X287576Y362826D01*
X285591Y364152D01*
X283250Y364618D01*
X280909Y364152D01*
X278924Y362826D01*
X277598Y360841D01*
X277132Y358500D01*
X277598Y356159D01*
X278924Y354174D01*
X279412Y353848D01*
Y323000D01*
X279761Y321244D01*
X280756Y319756D01*
X297154Y303358D01*
X297132Y303250D01*
X297598Y300909D01*
X298662Y299317D01*
Y212400D01*
X283232Y196971D01*
X282059Y197457D01*
Y221578D01*
X283326Y222424D01*
X284652Y224409D01*
X285117Y226750D01*
X284652Y229091D01*
X283326Y231076D01*
X281341Y232402D01*
X279000Y232868D01*
X276961Y232462D01*
X276245Y233241D01*
X276122Y233491D01*
X276902Y234659D01*
X277367Y237000D01*
X276902Y239341D01*
X275576Y241326D01*
X273591Y242652D01*
X271250Y243118D01*
X268909Y242652D01*
X266924Y241326D01*
X265598Y239341D01*
X265133Y237000D01*
X265598Y234659D01*
X266924Y232674D01*
X268191Y231828D01*
Y207609D01*
X266921Y206930D01*
X265841Y207652D01*
X263500Y208118D01*
X261159Y207652D01*
X260079Y206930D01*
X258809Y207609D01*
Y209078D01*
X260076Y209924D01*
X261402Y211909D01*
X261868Y214250D01*
X261402Y216591D01*
X260076Y218576D01*
X258091Y219902D01*
X255750Y220368D01*
X253409Y219902D01*
X251424Y218576D01*
X250098Y216591D01*
X249632Y214250D01*
X250098Y211909D01*
X251424Y209924D01*
X252691Y209078D01*
Y189331D01*
X244497Y181136D01*
X243282Y181505D01*
X243164Y182100D01*
X241837Y184084D01*
X239853Y185411D01*
X238335Y185713D01*
X237916Y187091D01*
X244913Y194087D01*
X244913Y194087D01*
X245310Y194682D01*
X245576Y195079D01*
X245809Y196250D01*
Y293056D01*
X247079Y293441D01*
X247424Y292924D01*
X249409Y291598D01*
X251750Y291133D01*
X252042Y291190D01*
X280366Y262866D01*
X280366Y262866D01*
X280989Y262450D01*
X281674Y261424D01*
X283659Y260098D01*
X286000Y259632D01*
X288341Y260098D01*
X290326Y261424D01*
X291652Y263409D01*
X292118Y265750D01*
X291652Y268091D01*
X290326Y270076D01*
X288341Y271402D01*
X286000Y271868D01*
X283659Y271402D01*
X283483Y271284D01*
X257810Y296958D01*
X257868Y297250D01*
X257402Y299591D01*
X256076Y301576D01*
X254091Y302902D01*
X251750Y303368D01*
X251425Y303303D01*
X250799Y304473D01*
X261506Y315180D01*
X263000Y314883D01*
X265341Y315348D01*
X267326Y316674D01*
X268652Y318659D01*
X269118Y321000D01*
X268652Y323341D01*
X267326Y325326D01*
X265341Y326652D01*
X263000Y327118D01*
X260659Y326652D01*
X258674Y325326D01*
X257348Y323341D01*
X256882Y321000D01*
X257180Y319506D01*
X240587Y302913D01*
X239924Y301921D01*
X239691Y300750D01*
X239691Y300750D01*
Y197517D01*
X173537Y131363D01*
X172874Y130371D01*
X172641Y129200D01*
X172641Y129200D01*
Y120973D01*
X171970Y120451D01*
Y111000D01*
Y102134D01*
X172276Y102194D01*
X173613Y103087D01*
X173658Y103155D01*
X174334Y102703D01*
X175700Y102431D01*
X177066Y102703D01*
X177742Y103155D01*
X177787Y103087D01*
X179124Y102194D01*
X179430Y102134D01*
Y111000D01*
Y120451D01*
X178759Y120973D01*
Y127933D01*
X230180Y179354D01*
X231558Y178936D01*
X231860Y177418D01*
X232917Y175836D01*
X183537Y126456D01*
X182874Y125464D01*
X182641Y124293D01*
X182641Y124293D01*
Y120973D01*
X181970Y120451D01*
Y111000D01*
Y102134D01*
X182276Y102194D01*
X183613Y103087D01*
X183658Y103155D01*
X184334Y102703D01*
X185700Y102431D01*
X187066Y102703D01*
X188200Y103461D01*
X189334Y102703D01*
X190700Y102431D01*
X192066Y102703D01*
X193200Y103461D01*
X194334Y102703D01*
X195700Y102431D01*
X197066Y102703D01*
X198200Y103461D01*
X199334Y102703D01*
X200700Y102431D01*
X202066Y102703D01*
X202742Y103155D01*
X202787Y103087D01*
X204124Y102194D01*
X204430Y102134D01*
Y111000D01*
X206970D01*
Y102134D01*
X207276Y102194D01*
X208613Y103087D01*
X208658Y103155D01*
X209334Y102703D01*
X210700Y102431D01*
X212066Y102703D01*
X212742Y103155D01*
X212787Y103087D01*
X214124Y102194D01*
X214430Y102134D01*
Y111000D01*
Y120451D01*
X213759Y120973D01*
Y124683D01*
X235488Y146413D01*
X236662Y145927D01*
Y141433D01*
X235598Y139841D01*
X235132Y137500D01*
X235598Y135159D01*
X236924Y133174D01*
X238909Y131848D01*
X241250Y131383D01*
X243591Y131848D01*
X245576Y133174D01*
X246902Y135159D01*
X247367Y137500D01*
X246902Y139841D01*
X245838Y141433D01*
Y146600D01*
X306494Y207256D01*
X307489Y208744D01*
X307838Y210500D01*
Y299317D01*
X308902Y300909D01*
X309368Y303250D01*
X308902Y305591D01*
X307576Y307576D01*
X305591Y308902D01*
X304337Y309151D01*
X293628Y319860D01*
X294254Y321031D01*
X295000Y320882D01*
X297341Y321348D01*
X299326Y322674D01*
X300652Y324659D01*
X301117Y327000D01*
X300654Y329329D01*
X335267Y363941D01*
X345199D01*
X345209Y363867D01*
X346418Y360948D01*
X348342Y358442D01*
X350848Y356518D01*
X353768Y355309D01*
X356900Y354897D01*
X360033Y355309D01*
X362952Y356518D01*
X365459Y358442D01*
X367382Y360948D01*
X368591Y363867D01*
X369004Y367000D01*
X368591Y370133D01*
X367382Y373052D01*
X365459Y375559D01*
X362952Y377482D01*
X360033Y378691D01*
X356900Y379104D01*
D02*
G37*
G36*
X65000Y319000D02*
X43000D01*
Y297000D01*
X65000D01*
Y319000D01*
D02*
G37*
G36*
Y293600D02*
X43000D01*
Y271600D01*
X65000D01*
Y293600D01*
D02*
G37*
G36*
X65540Y268740D02*
X55270D01*
Y258470D01*
X65540D01*
Y268740D01*
D02*
G37*
G36*
X52730D02*
X42460D01*
Y258470D01*
X52730D01*
Y268740D01*
D02*
G37*
G36*
X135000Y277586D02*
X132389Y277243D01*
X129957Y276235D01*
X127868Y274632D01*
X126265Y272543D01*
X125257Y270110D01*
X124914Y267500D01*
X125257Y264890D01*
X126265Y262457D01*
X127868Y260368D01*
X129957Y258765D01*
X132389Y257757D01*
X135000Y257414D01*
X137611Y257757D01*
X140043Y258765D01*
X142132Y260368D01*
X143735Y262457D01*
X144743Y264890D01*
X145086Y267500D01*
X144743Y270110D01*
X143735Y272543D01*
X142132Y274632D01*
X140043Y276235D01*
X137611Y277243D01*
X135000Y277586D01*
D02*
G37*
G36*
X444400Y269800D02*
X422400D01*
Y247800D01*
X444400D01*
Y269800D01*
D02*
G37*
G36*
X419000D02*
X397000D01*
Y247800D01*
X419000D01*
Y269800D01*
D02*
G37*
G36*
X65540Y255930D02*
X55270D01*
Y245660D01*
X65540D01*
Y255930D01*
D02*
G37*
G36*
X52730D02*
X42460D01*
Y245660D01*
X52730D01*
Y255930D01*
D02*
G37*
G36*
X444400Y244400D02*
X422400D01*
Y222400D01*
X444400D01*
Y244400D01*
D02*
G37*
G36*
X419000D02*
X397000D01*
Y222400D01*
X419000D01*
Y244400D01*
D02*
G37*
G36*
X65000Y242800D02*
X43000D01*
Y220800D01*
X65000D01*
Y242800D01*
D02*
G37*
G36*
X135000Y228786D02*
X132389Y228443D01*
X129957Y227435D01*
X127868Y225832D01*
X126265Y223743D01*
X125257Y221311D01*
X124914Y218700D01*
X125257Y216089D01*
X126265Y213657D01*
X127868Y211568D01*
X129957Y209965D01*
X132389Y208957D01*
X135000Y208614D01*
X137611Y208957D01*
X140043Y209965D01*
X142132Y211568D01*
X143735Y213657D01*
X144743Y216089D01*
X145086Y218700D01*
X144743Y221311D01*
X143735Y223743D01*
X142132Y225832D01*
X140043Y227435D01*
X137611Y228443D01*
X135000Y228786D01*
D02*
G37*
G36*
X444400Y219000D02*
X422400D01*
Y197000D01*
X444400D01*
Y219000D01*
D02*
G37*
G36*
X419000D02*
X397000D01*
Y197000D01*
X419000D01*
Y219000D01*
D02*
G37*
G36*
X65000Y217400D02*
X43000D01*
Y195400D01*
X65000D01*
Y217400D01*
D02*
G37*
G36*
X444400Y193600D02*
X422400D01*
Y171600D01*
X444400D01*
Y193600D01*
D02*
G37*
G36*
X419000D02*
X397000D01*
Y171600D01*
X419000D01*
Y193600D01*
D02*
G37*
G36*
X65000Y192000D02*
X43000D01*
Y170000D01*
X65000D01*
Y192000D01*
D02*
G37*
G36*
X419540Y168740D02*
X409270D01*
Y158470D01*
X419540D01*
Y168740D01*
D02*
G37*
G36*
X406730D02*
X396460D01*
Y158470D01*
X406730D01*
Y168740D01*
D02*
G37*
G36*
X419540Y155930D02*
X409270D01*
Y145660D01*
X419540D01*
Y155930D01*
D02*
G37*
G36*
X406730D02*
X396460D01*
Y145660D01*
X406730D01*
Y155930D01*
D02*
G37*
G36*
X279430Y119867D02*
X279124Y119806D01*
X278200Y119188D01*
X277276Y119806D01*
X276970Y119867D01*
Y111000D01*
Y102134D01*
X277276Y102194D01*
X278200Y102812D01*
X279124Y102194D01*
X279430Y102134D01*
Y111000D01*
Y119867D01*
D02*
G37*
G36*
X269430D02*
X269124Y119806D01*
X268200Y119188D01*
X267276Y119806D01*
X266970Y119867D01*
Y111000D01*
Y102134D01*
X267276Y102194D01*
X268200Y102812D01*
X269124Y102194D01*
X269430Y102134D01*
Y111000D01*
Y119867D01*
D02*
G37*
G36*
X259430D02*
X259124Y119806D01*
X258200Y119188D01*
X257276Y119806D01*
X256970Y119867D01*
Y111000D01*
Y102134D01*
X257276Y102194D01*
X258200Y102812D01*
X259124Y102194D01*
X259430Y102134D01*
Y111000D01*
Y119867D01*
D02*
G37*
G36*
X249430D02*
X249124Y119806D01*
X248200Y119188D01*
X247276Y119806D01*
X246970Y119867D01*
Y111000D01*
Y102134D01*
X247276Y102194D01*
X248200Y102812D01*
X249124Y102194D01*
X249430Y102134D01*
Y111000D01*
Y119867D01*
D02*
G37*
G36*
X239430D02*
X239124Y119806D01*
X238200Y119188D01*
X237276Y119806D01*
X236970Y119867D01*
Y111000D01*
Y102134D01*
X237276Y102194D01*
X238200Y102812D01*
X239124Y102194D01*
X239430Y102134D01*
Y111000D01*
Y119867D01*
D02*
G37*
G36*
X229430D02*
X229124Y119806D01*
X228200Y119188D01*
X227276Y119806D01*
X226970Y119867D01*
Y111000D01*
Y102134D01*
X227276Y102194D01*
X228200Y102812D01*
X229124Y102194D01*
X229430Y102134D01*
Y111000D01*
Y119867D01*
D02*
G37*
G36*
X219430D02*
X219124Y119806D01*
X218200Y119188D01*
X217276Y119806D01*
X216970Y119867D01*
Y111000D01*
Y102134D01*
X217276Y102194D01*
X218200Y102812D01*
X219124Y102194D01*
X219430Y102134D01*
Y111000D01*
Y119867D01*
D02*
G37*
G36*
X224430D02*
X224124Y119806D01*
X223200Y119188D01*
X222276Y119806D01*
X221970Y119867D01*
Y111000D01*
Y102134D01*
X222276Y102194D01*
X223200Y102812D01*
X224124Y102194D01*
X224430Y102134D01*
Y111000D01*
Y119867D01*
D02*
G37*
G36*
X264430D02*
X264124Y119806D01*
X263200Y119188D01*
X262276Y119806D01*
X261970Y119867D01*
Y111000D01*
Y102134D01*
X262276Y102194D01*
X263200Y102812D01*
X264124Y102194D01*
X264430Y102134D01*
Y111000D01*
Y119867D01*
D02*
G37*
G36*
X254430D02*
X254124Y119806D01*
X253200Y119188D01*
X252276Y119806D01*
X251970Y119867D01*
Y111000D01*
Y102134D01*
X252276Y102194D01*
X253200Y102812D01*
X254124Y102194D01*
X254430Y102134D01*
Y111000D01*
Y119867D01*
D02*
G37*
G36*
X244430D02*
X244124Y119806D01*
X243200Y119188D01*
X242276Y119806D01*
X241970Y119867D01*
Y111000D01*
Y102134D01*
X242276Y102194D01*
X243200Y102812D01*
X244124Y102194D01*
X244430Y102134D01*
Y111000D01*
Y119867D01*
D02*
G37*
G36*
X234430D02*
X234124Y119806D01*
X233200Y119188D01*
X232276Y119806D01*
X231970Y119867D01*
Y111000D01*
Y102134D01*
X232276Y102194D01*
X233200Y102812D01*
X234124Y102194D01*
X234430Y102134D01*
Y111000D01*
Y119867D01*
D02*
G37*
G36*
X284430D02*
X284124Y119806D01*
X283200Y119188D01*
X282276Y119806D01*
X281970Y119867D01*
Y111000D01*
Y102134D01*
X282276Y102194D01*
X283200Y102812D01*
X284124Y102194D01*
X284430Y102134D01*
Y111000D01*
Y119867D01*
D02*
G37*
G36*
X274430D02*
X274124Y119806D01*
X273200Y119188D01*
X272276Y119806D01*
X271970Y119867D01*
Y111000D01*
Y102134D01*
X272276Y102194D01*
X273200Y102812D01*
X274124Y102194D01*
X274430Y102134D01*
Y111000D01*
Y119867D01*
D02*
G37*
G36*
X316970D02*
Y112270D01*
X319819D01*
Y116000D01*
X319506Y117576D01*
X318613Y118913D01*
X317276Y119806D01*
X316970Y119867D01*
D02*
G37*
G36*
X161250Y142060D02*
X159423Y141820D01*
X157720Y141115D01*
X156257Y139993D01*
X155135Y138530D01*
X154430Y136827D01*
X154190Y135000D01*
X154430Y133173D01*
X155135Y131470D01*
X156257Y130008D01*
X157720Y128885D01*
X159423Y128180D01*
X159724Y128140D01*
Y126860D01*
X159423Y126820D01*
X157720Y126115D01*
X156257Y124993D01*
X155135Y123530D01*
X154430Y121827D01*
X154190Y120000D01*
X154430Y118173D01*
X155135Y116470D01*
X156257Y115008D01*
X157720Y113885D01*
X159423Y113180D01*
X161250Y112940D01*
X163077Y113180D01*
X164780Y113885D01*
X165311Y114293D01*
X166581Y113666D01*
Y112270D01*
X169430D01*
Y119916D01*
X168446Y120492D01*
X168215Y120726D01*
X168070Y121827D01*
X167365Y123530D01*
X166242Y124993D01*
X164780Y126115D01*
X163077Y126820D01*
X162776Y126860D01*
Y128140D01*
X163077Y128180D01*
X164780Y128885D01*
X166242Y130008D01*
X167365Y131470D01*
X168070Y133173D01*
X168310Y135000D01*
X168070Y136827D01*
X167365Y138530D01*
X166242Y139993D01*
X164780Y141115D01*
X163077Y141820D01*
X161250Y142060D01*
D02*
G37*
G36*
X407540Y115540D02*
X397270D01*
Y105270D01*
X407540D01*
Y115540D01*
D02*
G37*
G36*
X394730D02*
X384460D01*
Y105270D01*
X394730D01*
Y115540D01*
D02*
G37*
G36*
X81000Y107118D02*
X78659Y106652D01*
X76674Y105326D01*
X75828Y104059D01*
X74000D01*
X74000Y104059D01*
X72829Y103826D01*
X71837Y103163D01*
X71837Y103163D01*
X50333Y81659D01*
X48000D01*
Y89600D01*
X26000D01*
Y67600D01*
X48000D01*
Y75541D01*
X51600D01*
X51600Y75541D01*
X52771Y75774D01*
X53763Y76437D01*
X74737Y97411D01*
X76266Y97286D01*
X76674Y96674D01*
X78659Y95348D01*
X81000Y94882D01*
X83341Y95348D01*
X85326Y96674D01*
X86652Y98659D01*
X87118Y101000D01*
X86652Y103341D01*
X85326Y105326D01*
X83341Y106652D01*
X81000Y107118D01*
D02*
G37*
G36*
X169430Y109730D02*
X166581D01*
Y106000D01*
X166894Y104424D01*
X167787Y103087D01*
X169124Y102194D01*
X169430Y102134D01*
Y109730D01*
D02*
G37*
G36*
X454000Y115400D02*
X432000D01*
Y93400D01*
X454000D01*
Y115400D01*
D02*
G37*
G36*
X48000Y115000D02*
X26000D01*
Y93000D01*
X48000D01*
Y115000D01*
D02*
G37*
G36*
X407540Y102730D02*
X397270D01*
Y92460D01*
X407540D01*
Y102730D01*
D02*
G37*
G36*
X394730D02*
X384460D01*
Y92460D01*
X394730D01*
Y102730D01*
D02*
G37*
G36*
X454000Y90000D02*
X432000D01*
Y68000D01*
X454000D01*
Y90000D01*
D02*
G37*
G36*
X368000Y245117D02*
X365659Y244652D01*
X363674Y243326D01*
X362348Y241341D01*
X361883Y239000D01*
X362348Y236659D01*
X363674Y234674D01*
X364941Y233828D01*
Y96000D01*
X364941Y96000D01*
X365174Y94830D01*
X365837Y93837D01*
X383237Y76437D01*
X383237Y76437D01*
X383832Y76040D01*
X384229Y75774D01*
X385000Y75621D01*
Y67600D01*
X407000D01*
Y89600D01*
X385000D01*
Y84985D01*
X383827Y84499D01*
X371059Y97267D01*
Y233828D01*
X372326Y234674D01*
X373652Y236659D01*
X374118Y239000D01*
X373652Y241341D01*
X372326Y243326D01*
X370341Y244652D01*
X368000Y245117D01*
D02*
G37*
G36*
X343700Y81500D02*
X321700D01*
Y60500D01*
X343700D01*
Y81500D01*
D02*
G37*
G36*
X164950D02*
X142950D01*
Y60500D01*
X164950D01*
Y81500D01*
D02*
G37*
G36*
X444400Y168200D02*
X422400D01*
Y146200D01*
X428357D01*
X428883Y144930D01*
X421477Y137523D01*
X420703Y136366D01*
X420431Y135000D01*
Y72478D01*
X408173Y60220D01*
X407000Y60706D01*
Y64200D01*
X385000D01*
Y59456D01*
X383827Y58970D01*
X345023Y97773D01*
X343866Y98547D01*
X342500Y98819D01*
X317007D01*
X315126Y100700D01*
X315629Y101734D01*
X315734Y101888D01*
X317276Y102194D01*
X318613Y103087D01*
X319506Y104424D01*
X319819Y106000D01*
Y109730D01*
X315700D01*
Y111000D01*
X314430D01*
Y119867D01*
X314124Y119806D01*
X312787Y118913D01*
X312742Y118845D01*
X312066Y119297D01*
X310700Y119569D01*
X309334Y119297D01*
X308200Y118539D01*
X307066Y119297D01*
X305700Y119569D01*
X304334Y119297D01*
X303658Y118845D01*
X303613Y118913D01*
X302276Y119806D01*
X301970Y119867D01*
Y111000D01*
X299430D01*
Y119867D01*
X299124Y119806D01*
X298200Y119188D01*
X297276Y119806D01*
X296970Y119867D01*
Y111000D01*
X294430D01*
Y119867D01*
X294124Y119806D01*
X292787Y118913D01*
X292742Y118845D01*
X292066Y119297D01*
X290700Y119569D01*
X289334Y119297D01*
X288658Y118845D01*
X288613Y118913D01*
X287276Y119806D01*
X286970Y119867D01*
Y111000D01*
Y102102D01*
X287446Y102046D01*
X288268Y101329D01*
X288374Y100794D01*
X289037Y99802D01*
X295752Y93087D01*
X295752Y93087D01*
X296744Y92424D01*
X297915Y92191D01*
X297915Y92191D01*
X309528D01*
X309884Y91953D01*
X311250Y91681D01*
X341022D01*
X382027Y50677D01*
X383184Y49903D01*
X384550Y49631D01*
X385000D01*
Y42200D01*
X407000D01*
Y49791D01*
X407566Y49903D01*
X408723Y50677D01*
X426523Y68477D01*
X427297Y69634D01*
X427569Y71000D01*
Y133522D01*
X435924Y141877D01*
X436697Y143034D01*
X436969Y144400D01*
Y146200D01*
X444400D01*
Y168200D01*
D02*
G37*
G36*
X450000Y47082D02*
X446667Y46754D01*
X443463Y45782D01*
X440510Y44203D01*
X437921Y42079D01*
X435797Y39490D01*
X434218Y36537D01*
X433246Y33333D01*
X432918Y30000D01*
X433246Y26667D01*
X434218Y23463D01*
X435797Y20510D01*
X437921Y17921D01*
X440510Y15797D01*
X443463Y14218D01*
X446667Y13246D01*
X450000Y12918D01*
X453333Y13246D01*
X456537Y14218D01*
X459490Y15797D01*
X462079Y17921D01*
X464203Y20510D01*
X465782Y23463D01*
X466754Y26667D01*
X467082Y30000D01*
X466754Y33333D01*
X465782Y36537D01*
X464203Y39490D01*
X462079Y42079D01*
X459490Y44203D01*
X456537Y45782D01*
X453333Y46754D01*
X450000Y47082D01*
D02*
G37*
G36*
X30000D02*
X26667Y46754D01*
X23463Y45782D01*
X20510Y44203D01*
X17921Y42079D01*
X15797Y39490D01*
X14218Y36537D01*
X13246Y33333D01*
X12918Y30000D01*
X13246Y26667D01*
X14218Y23463D01*
X15797Y20510D01*
X17921Y17921D01*
X20510Y15797D01*
X23463Y14218D01*
X26667Y13246D01*
X30000Y12918D01*
X33333Y13246D01*
X36537Y14218D01*
X39490Y15797D01*
X42079Y17921D01*
X44203Y20510D01*
X45782Y23463D01*
X46754Y26667D01*
X47082Y30000D01*
X46754Y33333D01*
X45782Y36537D01*
X44203Y39490D01*
X42079Y42079D01*
X39490Y44203D01*
X36537Y45782D01*
X33333Y46754D01*
X30000Y47082D01*
D02*
G37*
%LPD*%
D17*
X334000Y367000D02*
X356900D01*
X296500Y329500D02*
X334000Y367000D01*
X296500Y327000D02*
Y329500D01*
X310700Y100800D02*
X316250Y95250D01*
X310700Y100800D02*
Y110000D01*
X297915Y95250D02*
X311250D01*
X291200Y101964D02*
X297915Y95250D01*
X291200Y101964D02*
Y109500D01*
X290700Y110000D02*
X291200Y109500D01*
X305700Y100800D02*
X311250Y95250D01*
X305700Y100800D02*
Y110000D01*
X210700D02*
Y125950D01*
X200700Y110000D02*
Y121700D01*
X279000Y194250D02*
Y226750D01*
X210700Y125950D02*
X279000Y194250D01*
X263500Y190157D02*
Y202000D01*
X271250Y192250D02*
Y237000D01*
X264500Y185500D02*
X271250Y192250D01*
X200700Y121700D02*
X264500Y185500D01*
X368000Y96000D02*
Y239000D01*
Y96000D02*
X385400Y78600D01*
X396000D01*
X74000Y101000D02*
X81000D01*
X51600Y78600D02*
X74000Y101000D01*
X32000Y78600D02*
X51600D01*
X175700Y110000D02*
Y129200D01*
X242750Y196250D01*
X255750Y188064D02*
Y214250D01*
X195700Y110000D02*
Y122357D01*
X263500Y190157D01*
X190700Y110000D02*
Y123014D01*
X255750Y188064D01*
X237512Y176105D02*
Y179759D01*
X185700Y110000D02*
Y124293D01*
X237512Y176105D01*
X242750Y196250D02*
Y300750D01*
X263000Y321000D01*
D18*
X284000Y323000D02*
Y357750D01*
X241250Y137500D02*
Y148500D01*
X119000Y395000D02*
X246000D01*
X266750Y415750D01*
X241250Y148500D02*
X303250Y210500D01*
Y303750D01*
X284000Y323000D02*
X303250Y303750D01*
D19*
X283250Y358500D02*
X284000Y357750D01*
X283250Y265750D02*
X286000D01*
X251750Y297250D02*
X283250Y265750D01*
D21*
X450000Y30000D02*
D03*
X30000D02*
D03*
X30000Y480000D02*
D03*
X450000D02*
D03*
D22*
X433100Y367000D02*
D03*
X356900D02*
D03*
X308000Y433000D02*
D03*
Y483800D02*
D03*
D23*
X433400Y258800D02*
D03*
Y233400D02*
D03*
Y208000D02*
D03*
Y182600D02*
D03*
Y157200D02*
D03*
X408000D02*
D03*
Y182600D02*
D03*
Y208000D02*
D03*
Y233400D02*
D03*
Y258800D02*
D03*
X396000Y53200D02*
D03*
Y78600D02*
D03*
Y104000D02*
D03*
X54000Y308000D02*
D03*
Y206400D02*
D03*
Y181000D02*
D03*
Y257200D02*
D03*
Y282600D02*
D03*
Y231800D02*
D03*
X37000Y78600D02*
D03*
Y104000D02*
D03*
X443000Y104400D02*
D03*
Y79000D02*
D03*
D24*
X135000Y267500D02*
D03*
Y218700D02*
D03*
D25*
X161250Y120000D02*
D03*
Y135000D02*
D03*
X148250Y241000D02*
D03*
X138000Y127250D02*
D03*
X135000Y191750D02*
D03*
Y294750D02*
D03*
D26*
X82600Y464000D02*
D03*
X108000D02*
D03*
X142600Y464000D02*
D03*
X168000D02*
D03*
D27*
X281000Y407000D02*
D03*
X303250Y303250D02*
D03*
X283250Y358500D02*
D03*
X285750Y176000D02*
D03*
X286000Y265750D02*
D03*
X251750Y297250D02*
D03*
X237512Y179759D02*
D03*
X263500Y202000D02*
D03*
X271250Y237000D02*
D03*
X279000Y226750D02*
D03*
X263000Y321000D02*
D03*
X286000Y277850D02*
D03*
X241250Y137500D02*
D03*
X368000Y239000D02*
D03*
X119000Y395000D02*
D03*
X81000Y101000D02*
D03*
X266750Y415750D02*
D03*
X236000Y470000D02*
D03*
X352000Y172000D02*
D03*
X250000Y332000D02*
D03*
X295000Y327000D02*
D03*
X255750Y214250D02*
D03*
X260000Y83000D02*
D03*
X231250Y201500D02*
D03*
D28*
X170700Y111000D02*
D03*
X175700D02*
D03*
X185700D02*
D03*
X195700D02*
D03*
X205700D02*
D03*
X215700D02*
D03*
X225700D02*
D03*
X235700D02*
D03*
X245700D02*
D03*
X255700D02*
D03*
X265700D02*
D03*
X275700D02*
D03*
X285700D02*
D03*
X295700D02*
D03*
X305700D02*
D03*
X315700D02*
D03*
X310700D02*
D03*
X300700D02*
D03*
X290700D02*
D03*
X280700D02*
D03*
X270700D02*
D03*
X260700D02*
D03*
X250700D02*
D03*
X240700D02*
D03*
X230700D02*
D03*
X220700D02*
D03*
X210700D02*
D03*
X200700D02*
D03*
X190700D02*
D03*
X180700D02*
D03*
D29*
X153950Y71000D02*
D03*
X332700D02*
D03*
D30*
X384550Y53200D02*
X396000D01*
X342500Y95250D02*
X384550Y53200D01*
X316250Y95250D02*
X342500D01*
X311250D02*
X316250D01*
X396000Y53200D02*
X406200D01*
X424000Y71000D01*
Y135000D01*
X433400Y144400D01*
Y157200D01*
M02*
