G04 Layer_Color=16711935*
%FSLAX44Y44*%
%MOMM*%
G71*
G01*
G75*
%ADD25C,1.0000*%
%ADD39C,3.2000*%
%ADD40C,2.2000*%
%ADD41R,2.0000X2.0000*%
%ADD42C,1.8000*%
%ADD43C,1.2000*%
%ADD44R,2.0000X2.0000*%
%ADD45O,0.5000X1.5000*%
%ADD46R,2.0000X1.9000*%
D25*
X281000Y407000D02*
D03*
X303250Y303250D02*
D03*
X283250Y358500D02*
D03*
X285750Y176000D02*
D03*
X286000Y265750D02*
D03*
X251750Y297250D02*
D03*
X237512Y179759D02*
D03*
X263500Y202000D02*
D03*
X271250Y237000D02*
D03*
X279000Y226750D02*
D03*
X263000Y321000D02*
D03*
X286000Y277850D02*
D03*
X241250Y137500D02*
D03*
X368000Y239000D02*
D03*
X119000Y395000D02*
D03*
X81000Y101000D02*
D03*
X266750Y415750D02*
D03*
X236000Y470000D02*
D03*
X352000Y172000D02*
D03*
X250000Y332000D02*
D03*
X295000Y327000D02*
D03*
X255750Y214250D02*
D03*
X260000Y83000D02*
D03*
X231250Y201500D02*
D03*
D39*
X450000Y30000D02*
D03*
X30000D02*
D03*
X30000Y480000D02*
D03*
X450000D02*
D03*
D40*
X433100Y367000D02*
D03*
X356900D02*
D03*
X308000Y433000D02*
D03*
Y483800D02*
D03*
D41*
X433400Y258800D02*
D03*
Y233400D02*
D03*
Y208000D02*
D03*
Y182600D02*
D03*
Y157200D02*
D03*
X408000D02*
D03*
Y182600D02*
D03*
Y208000D02*
D03*
Y233400D02*
D03*
Y258800D02*
D03*
X396000Y53200D02*
D03*
Y78600D02*
D03*
Y104000D02*
D03*
X54000Y308000D02*
D03*
Y206400D02*
D03*
Y181000D02*
D03*
Y257200D02*
D03*
Y282600D02*
D03*
Y231800D02*
D03*
X37000Y78600D02*
D03*
Y104000D02*
D03*
X443000Y104400D02*
D03*
Y79000D02*
D03*
D42*
X135000Y267500D02*
D03*
Y218700D02*
D03*
D43*
X161250Y120000D02*
D03*
Y135000D02*
D03*
X148250Y241000D02*
D03*
X138000Y127250D02*
D03*
X135000Y191750D02*
D03*
Y294750D02*
D03*
D44*
X82600Y464000D02*
D03*
X108000D02*
D03*
X142600Y464000D02*
D03*
X168000D02*
D03*
D45*
X170700Y111000D02*
D03*
X175700D02*
D03*
X185700D02*
D03*
X195700D02*
D03*
X205700D02*
D03*
X215700D02*
D03*
X225700D02*
D03*
X235700D02*
D03*
X245700D02*
D03*
X255700D02*
D03*
X265700D02*
D03*
X275700D02*
D03*
X285700D02*
D03*
X295700D02*
D03*
X305700D02*
D03*
X315700D02*
D03*
X310700D02*
D03*
X300700D02*
D03*
X290700D02*
D03*
X280700D02*
D03*
X270700D02*
D03*
X260700D02*
D03*
X250700D02*
D03*
X240700D02*
D03*
X230700D02*
D03*
X220700D02*
D03*
X210700D02*
D03*
X200700D02*
D03*
X190700D02*
D03*
X180700D02*
D03*
D46*
X153950Y71000D02*
D03*
X332700D02*
D03*
M02*
