G04 Layer_Color=32896*
%FSLAX44Y44*%
%MOMM*%
G71*
G01*
G75*
%ADD17C,0.2000*%
%ADD47C,1.1000*%
%ADD48R,0.3000X14.0000*%
%ADD49C,0.1500*%
D17*
X465000Y367000D02*
G03*
X465000Y367000I-70000J0D01*
G01*
X348000Y458400D02*
G03*
X348000Y458400I-40000J0D01*
G01*
X181250Y127750D02*
X367000D01*
X154250Y154750D02*
X181250Y127750D01*
X154250Y154750D02*
Y289000D01*
X367000Y127750D02*
Y289000D01*
X154250D02*
X367000D01*
X381776Y117462D02*
X410224D01*
Y39738D02*
Y117462D01*
X381776Y39738D02*
X410224D01*
X381776D02*
Y117462D01*
X23266Y165760D02*
X84734D01*
Y323240D01*
X23266D02*
X84734D01*
X23266Y165760D02*
Y323240D01*
X22776Y117462D02*
X51224D01*
Y65000D02*
Y117462D01*
X22776Y65000D02*
X51224D01*
X22776D02*
Y117462D01*
X428776Y65538D02*
X457224D01*
X428776D02*
Y118000D01*
X457224D01*
Y65538D02*
Y118000D01*
X121462Y449776D02*
Y478224D01*
X69000Y449776D02*
X121462D01*
X69000D02*
Y478224D01*
X121462D01*
X181462Y449776D02*
Y478224D01*
X129000Y449776D02*
X181462D01*
X129000D02*
Y478224D01*
X181462D01*
X320700Y110000D02*
X335700D01*
X150700D02*
X165700D01*
X166700Y61000D02*
X319700D01*
X150700Y83000D02*
Y110000D01*
X335700Y83000D02*
Y110000D01*
X403335Y33997D02*
X406668D01*
X405002D01*
Y25666D01*
X406668Y24000D01*
X408334D01*
X410000Y25666D01*
X393339Y33997D02*
X400003D01*
Y28998D01*
X396671Y30665D01*
X395005D01*
X393339Y28998D01*
Y25666D01*
X395005Y24000D01*
X398337D01*
X400003Y25666D01*
X456335Y434997D02*
X459668D01*
X458002D01*
Y426666D01*
X459668Y425000D01*
X461334D01*
X463000Y426666D01*
X453003Y433331D02*
X451337Y434997D01*
X448005D01*
X446339Y433331D01*
Y431665D01*
X448005Y429998D01*
X449671D01*
X448005D01*
X446339Y428332D01*
Y426666D01*
X448005Y425000D01*
X451337D01*
X453003Y426666D01*
X450085Y132997D02*
X453418D01*
X451752D01*
Y124666D01*
X453418Y123000D01*
X455084D01*
X456750Y124666D01*
X446753Y123000D02*
X443421D01*
X445087D01*
Y132997D01*
X446753Y131331D01*
X43836Y132997D02*
X47168D01*
X45502D01*
Y124666D01*
X47168Y123000D01*
X48834D01*
X50500Y124666D01*
X40503Y123000D02*
X37171D01*
X38837D01*
Y132997D01*
X40503Y131331D01*
X179500Y434250D02*
Y444247D01*
X174502D01*
X172836Y442581D01*
Y439248D01*
X174502Y437582D01*
X179500D01*
X162839Y434250D02*
X169503D01*
X162839Y440914D01*
Y442581D01*
X164505Y444247D01*
X167837D01*
X169503Y442581D01*
X82750Y434250D02*
Y444247D01*
X77752D01*
X76086Y442581D01*
Y439248D01*
X77752Y437582D01*
X82750D01*
X72753Y434250D02*
X69421D01*
X71087D01*
Y444247D01*
X72753Y442581D01*
X359000Y496997D02*
Y487000D01*
X352336D01*
X349003D02*
X345671D01*
X347337D01*
Y496997D01*
X349003Y495331D01*
X76335Y159997D02*
X79668D01*
X78001D01*
Y151666D01*
X79668Y150000D01*
X81334D01*
X83000Y151666D01*
X66339Y159997D02*
X69671Y158330D01*
X73003Y154998D01*
Y151666D01*
X71337Y150000D01*
X68005D01*
X66339Y151666D01*
Y153332D01*
X68005Y154998D01*
X73003D01*
X383586Y140247D02*
X386918D01*
X385252D01*
Y131916D01*
X386918Y130250D01*
X388584D01*
X390250Y131916D01*
X375255Y130250D02*
Y140247D01*
X380253Y135248D01*
X373589D01*
X139086Y109997D02*
X142418D01*
X140752D01*
Y101666D01*
X142418Y100000D01*
X144084D01*
X145750Y101666D01*
X129089Y100000D02*
X135753D01*
X129089Y106664D01*
Y108331D01*
X130755Y109997D01*
X134087D01*
X135753Y108331D01*
D47*
X433400Y138000D02*
D03*
D48*
X30000Y244500D02*
D03*
D49*
X415132Y82156D02*
X419131D01*
X421130Y80157D01*
X419131Y78157D01*
X415132D01*
Y73159D02*
Y75158D01*
X416132Y76158D01*
X420130D01*
X421130Y75158D01*
Y73159D01*
X420130Y72159D01*
X416132D01*
X415132Y73159D01*
X415002Y57500D02*
X419001D01*
X421000Y55501D01*
X419001Y53501D01*
X415002D01*
X416002Y47503D02*
X415002Y48503D01*
Y50502D01*
X416002Y51502D01*
X417001D01*
X418001Y50502D01*
Y48503D01*
X419001Y47503D01*
X420000D01*
X421000Y48503D01*
Y50502D01*
X420000Y51502D01*
X416002Y107001D02*
X415002Y108001D01*
Y110000D01*
X416002Y111000D01*
X420000D01*
X421000Y110000D01*
Y108001D01*
X420000Y107001D01*
X418001D01*
Y109001D01*
X421000Y105002D02*
X415002D01*
X421000Y101003D01*
X415002D01*
Y99004D02*
X421000D01*
Y96005D01*
X420000Y95005D01*
X416002D01*
X415002Y96005D01*
Y99004D01*
X96164Y185826D02*
X90166D01*
X96164Y181827D01*
X90166D01*
X91166Y175829D02*
X90166Y176829D01*
Y178828D01*
X91166Y179828D01*
X95164D01*
X96164Y178828D01*
Y176829D01*
X95164Y175829D01*
X96164Y214274D02*
X90166D01*
Y211275D01*
X91166Y210275D01*
X93165D01*
X94165Y211275D01*
Y214274D01*
X91166Y204277D02*
X90166Y205277D01*
Y207276D01*
X91166Y208276D01*
X95164D01*
X96164Y207276D01*
Y205277D01*
X95164Y204277D01*
X93165D01*
Y206277D01*
X91166Y198279D02*
X90166Y199279D01*
Y201278D01*
X91166Y202278D01*
X95164D01*
X96164Y201278D01*
Y199279D01*
X95164Y198279D01*
X96164Y239420D02*
X90166D01*
Y236421D01*
X91166Y235421D01*
X93165D01*
X94165Y236421D01*
Y239420D01*
X91166Y229423D02*
X90166Y230423D01*
Y232422D01*
X91166Y233422D01*
X95164D01*
X96164Y232422D01*
Y230423D01*
X95164Y229423D01*
X93165D01*
Y231423D01*
X90166Y227424D02*
X96164D01*
Y224425D01*
X95164Y223425D01*
X91166D01*
X90166Y224425D01*
Y227424D01*
X91166Y259805D02*
X90166Y260805D01*
Y262804D01*
X91166Y263804D01*
X95164D01*
X96164Y262804D01*
Y260805D01*
X95164Y259805D01*
X93165D01*
Y261805D01*
X96164Y257806D02*
X90166D01*
X96164Y253807D01*
X90166D01*
Y251808D02*
X96164D01*
Y248809D01*
X95164Y247809D01*
X91166D01*
X90166Y248809D01*
Y251808D01*
X96164Y317906D02*
X90166D01*
X92165Y315907D01*
X90166Y313907D01*
X96164D01*
X91166Y307909D02*
X90166Y308909D01*
Y310908D01*
X91166Y311908D01*
X95164D01*
X96164Y310908D01*
Y308909D01*
X95164Y307909D01*
X90166Y305910D02*
X96164D01*
Y301911D01*
Y299912D02*
X90166D01*
Y296913D01*
X91166Y295913D01*
X93165D01*
X94165Y296913D01*
Y299912D01*
Y297913D02*
X96164Y295913D01*
X90166Y289966D02*
X94165D01*
X96164Y287967D01*
X94165Y285967D01*
X90166D01*
X91166Y279969D02*
X90166Y280969D01*
Y282968D01*
X91166Y283968D01*
X95164D01*
X96164Y282968D01*
Y280969D01*
X95164Y279969D01*
X91166Y273971D02*
X90166Y274971D01*
Y276970D01*
X91166Y277970D01*
X95164D01*
X96164Y276970D01*
Y274971D01*
X95164Y273971D01*
X15001Y80500D02*
Y76501D01*
Y106000D02*
Y102001D01*
X13002Y104001D02*
X17000D01*
X464999Y102500D02*
Y106499D01*
Y77000D02*
Y80999D01*
X466998Y78999D02*
X463000D01*
X86501Y487998D02*
X87501Y488998D01*
X89500D01*
X90500Y487998D01*
Y484000D01*
X89500Y483000D01*
X87501D01*
X86501Y484000D01*
Y485999D01*
X88501D01*
X84502Y483000D02*
Y488998D01*
X80503Y483000D01*
Y488998D01*
X78504D02*
Y483000D01*
X75505D01*
X74505Y484000D01*
Y487998D01*
X75505Y488998D01*
X78504D01*
X116000D02*
Y484999D01*
X114001Y483000D01*
X112001Y484999D01*
Y488998D01*
X106003Y487998D02*
X107003Y488998D01*
X109002D01*
X110002Y487998D01*
Y484000D01*
X109002Y483000D01*
X107003D01*
X106003Y484000D01*
X100005Y487998D02*
X101005Y488998D01*
X103004D01*
X104004Y487998D01*
Y484000D01*
X103004Y483000D01*
X101005D01*
X100005Y484000D01*
X146501Y487999D02*
X147501Y488998D01*
X149501D01*
X150500Y487999D01*
Y484000D01*
X149501Y483000D01*
X147501D01*
X146501Y484000D01*
Y485999D01*
X148501D01*
X144502Y483000D02*
Y488998D01*
X140503Y483000D01*
Y488998D01*
X138504D02*
Y483000D01*
X135505D01*
X134505Y484000D01*
Y487999D01*
X135505Y488998D01*
X138504D01*
X176000D02*
Y485000D01*
X174001Y483000D01*
X172001Y485000D01*
Y488998D01*
X166003Y487999D02*
X167003Y488998D01*
X169002D01*
X170002Y487999D01*
Y484000D01*
X169002Y483000D01*
X167003D01*
X166003Y484000D01*
X160005Y487999D02*
X161005Y488998D01*
X163004D01*
X164004Y487999D01*
Y484000D01*
X163004Y483000D01*
X161005D01*
X160005Y484000D01*
M02*
