G04 Layer_Color=8388736*
%FSLAX44Y44*%
%MOMM*%
G71*
G01*
G75*
%ADD26C,1.0000*%
%ADD32R,1.1000X1.1000*%
%ADD33R,1.1000X1.1000*%
%ADD34R,2.5000X1.7200*%
%ADD35R,1.7200X2.5000*%
%ADD36R,1.0000X1.1000*%
%ADD37O,2.0000X0.8000*%
%ADD38R,1.0500X0.6500*%
%ADD39C,3.2000*%
%ADD40R,2.0000X2.0000*%
%ADD41C,2.2000*%
%ADD42R,2.0000X2.0000*%
%ADD43C,1.8000*%
%ADD44C,1.2000*%
D26*
X281000Y407000D02*
D03*
X303250Y303250D02*
D03*
X283250Y358500D02*
D03*
X285750Y176000D02*
D03*
X286000Y265750D02*
D03*
X251750Y297250D02*
D03*
X237512Y179759D02*
D03*
X263500Y202000D02*
D03*
X271250Y237000D02*
D03*
X279000Y226750D02*
D03*
X263000Y321000D02*
D03*
X286000Y277850D02*
D03*
X241250Y137500D02*
D03*
X368000Y239000D02*
D03*
X119000Y395000D02*
D03*
X81000Y101000D02*
D03*
X266750Y415750D02*
D03*
X236000Y470000D02*
D03*
X352000Y172000D02*
D03*
X250000Y332000D02*
D03*
X295000Y327000D02*
D03*
X255750Y214250D02*
D03*
X260000Y83000D02*
D03*
X231250Y201500D02*
D03*
D32*
X182000Y176000D02*
D03*
Y194000D02*
D03*
Y249000D02*
D03*
Y231000D02*
D03*
X242000Y83000D02*
D03*
Y101000D02*
D03*
X69000Y138000D02*
D03*
Y120000D02*
D03*
X182000Y136500D02*
D03*
Y118500D02*
D03*
X216000Y340000D02*
D03*
Y322000D02*
D03*
X237000Y322000D02*
D03*
Y340000D02*
D03*
X219000Y429000D02*
D03*
Y411000D02*
D03*
Y468000D02*
D03*
Y450000D02*
D03*
X254000Y472000D02*
D03*
Y490000D02*
D03*
D33*
X157000Y101000D02*
D03*
X139000D02*
D03*
X352000Y290500D02*
D03*
X334000D02*
D03*
X156000Y154250D02*
D03*
X138000D02*
D03*
X352000Y187000D02*
D03*
X334000D02*
D03*
X352000Y208000D02*
D03*
X334000D02*
D03*
X95000Y101000D02*
D03*
X113000D02*
D03*
X334000Y138000D02*
D03*
X352000D02*
D03*
X334000Y250000D02*
D03*
X352000D02*
D03*
X219000Y390000D02*
D03*
X237000D02*
D03*
X259000D02*
D03*
X277000D02*
D03*
X352000Y229000D02*
D03*
X334000D02*
D03*
D34*
X89000Y439000D02*
D03*
Y396300D02*
D03*
D35*
X177000Y378000D02*
D03*
X134300D02*
D03*
X177000Y426000D02*
D03*
X134300D02*
D03*
D36*
X317000Y322000D02*
D03*
X307500Y342000D02*
D03*
X326500D02*
D03*
X275000Y322000D02*
D03*
X265500Y342000D02*
D03*
X284500D02*
D03*
D37*
X305000Y125450D02*
D03*
Y138150D02*
D03*
Y150850D02*
D03*
Y163550D02*
D03*
Y176250D02*
D03*
Y188950D02*
D03*
Y201650D02*
D03*
Y214350D02*
D03*
Y227050D02*
D03*
Y239750D02*
D03*
Y252450D02*
D03*
Y265150D02*
D03*
Y277850D02*
D03*
Y290550D02*
D03*
X211000Y125450D02*
D03*
Y138150D02*
D03*
Y150850D02*
D03*
Y163550D02*
D03*
Y176250D02*
D03*
Y188950D02*
D03*
Y201650D02*
D03*
Y214350D02*
D03*
Y227050D02*
D03*
Y239750D02*
D03*
Y252450D02*
D03*
Y265150D02*
D03*
Y277850D02*
D03*
Y290550D02*
D03*
D38*
X266750Y432000D02*
D03*
Y441000D02*
D03*
Y450000D02*
D03*
X239250D02*
D03*
Y432000D02*
D03*
D39*
X450000Y30000D02*
D03*
X30000D02*
D03*
X30000Y480000D02*
D03*
X450000D02*
D03*
D40*
X37000Y78600D02*
D03*
Y104000D02*
D03*
X443000Y104400D02*
D03*
Y79000D02*
D03*
X433400Y258800D02*
D03*
Y233400D02*
D03*
Y208000D02*
D03*
Y182600D02*
D03*
Y157200D02*
D03*
X408000D02*
D03*
Y182600D02*
D03*
Y208000D02*
D03*
Y233400D02*
D03*
Y258800D02*
D03*
X396000Y53200D02*
D03*
Y78600D02*
D03*
Y104000D02*
D03*
X54000Y308000D02*
D03*
Y206400D02*
D03*
Y181000D02*
D03*
Y257200D02*
D03*
Y282600D02*
D03*
Y231800D02*
D03*
D41*
X433100Y367000D02*
D03*
X356900D02*
D03*
X308000Y433000D02*
D03*
Y483800D02*
D03*
D42*
X82600Y464000D02*
D03*
X108000D02*
D03*
X142600Y464000D02*
D03*
X168000D02*
D03*
D43*
X135000Y267500D02*
D03*
Y218700D02*
D03*
D44*
X161250Y120000D02*
D03*
Y135000D02*
D03*
X148250Y241000D02*
D03*
X138000Y127250D02*
D03*
X135000Y191750D02*
D03*
Y294750D02*
D03*
M02*
