G04 Layer_Physical_Order=1*
G04 Layer_Color=255*
%FSLAX44Y44*%
%MOMM*%
G71*
G01*
G75*
%ADD10R,0.9000X0.9000*%
%ADD11R,0.9000X0.9000*%
%ADD12R,2.3000X1.5200*%
%ADD13R,1.5200X2.3000*%
%ADD14R,0.8000X0.9000*%
%ADD15O,1.8000X0.6000*%
%ADD16R,0.9500X0.5500*%
%ADD17C,0.2000*%
%ADD18C,0.5000*%
%ADD19C,0.4000*%
%ADD20C,0.6000*%
%ADD21C,3.0000*%
%ADD22R,1.8000X1.8000*%
%ADD23C,2.0000*%
%ADD24R,1.8000X1.8000*%
%ADD25C,1.6000*%
%ADD26C,1.0000*%
%ADD27C,0.8000*%
G36*
X153241Y312857D02*
X156357Y309741D01*
X158948Y306175D01*
X160949Y302248D01*
X162311Y298057D01*
X163000Y293704D01*
Y291500D01*
Y270559D01*
X144557D01*
X143735Y272543D01*
X142132Y274632D01*
X140043Y276235D01*
X137611Y277243D01*
X135000Y277586D01*
X132389Y277243D01*
X129957Y276235D01*
X127868Y274632D01*
X126265Y272543D01*
X125257Y270110D01*
X124914Y267500D01*
X125257Y264890D01*
X126265Y262457D01*
X127868Y260368D01*
X129957Y258765D01*
X132389Y257757D01*
X135000Y257414D01*
X137611Y257757D01*
X140043Y258765D01*
X142132Y260368D01*
X143735Y262457D01*
X144557Y264441D01*
X162233D01*
X163000Y263674D01*
Y244059D01*
X148250D01*
X147079Y243826D01*
X146087Y243163D01*
X145424Y242171D01*
X145191Y241000D01*
X145424Y239830D01*
X146087Y238837D01*
X147079Y238174D01*
X148250Y237941D01*
X163000D01*
Y195822D01*
X161730Y195296D01*
X143576Y213450D01*
X143735Y213657D01*
X144743Y216089D01*
X145086Y218700D01*
X144743Y221311D01*
X143735Y223743D01*
X142132Y225832D01*
X140043Y227435D01*
X137611Y228443D01*
X135000Y228786D01*
X132389Y228443D01*
X129957Y227435D01*
X127868Y225832D01*
X126265Y223743D01*
X125257Y221311D01*
X124914Y218700D01*
X125257Y216089D01*
X126265Y213657D01*
X127868Y211568D01*
X129957Y209965D01*
X132389Y208957D01*
X135000Y208614D01*
X137611Y208957D01*
X138888Y209487D01*
X161800Y186574D01*
X160949Y183952D01*
X158948Y180025D01*
X156357Y176459D01*
X153241Y173343D01*
X149675Y170752D01*
X145748Y168751D01*
X141557Y167389D01*
X137204Y166700D01*
X132796D01*
X128443Y167389D01*
X124252Y168751D01*
X120325Y170752D01*
X116759Y173343D01*
X113643Y176459D01*
X111052Y180025D01*
X109051Y183952D01*
X107689Y188143D01*
X107000Y192496D01*
Y194700D01*
Y291500D01*
Y293704D01*
X107689Y298057D01*
X109051Y302248D01*
X111052Y306175D01*
X113429Y309446D01*
X117054Y313071D01*
X118940Y314441D01*
X151060D01*
X153241Y312857D01*
D02*
G37*
G36*
X150000Y113000D02*
X141059D01*
Y142250D01*
X150000D01*
Y113000D01*
D02*
G37*
G36*
X134941D02*
X84500D01*
Y142250D01*
X134941D01*
Y113000D01*
D02*
G37*
D10*
X182000Y176000D02*
D03*
Y194000D02*
D03*
Y249000D02*
D03*
Y231000D02*
D03*
X242000Y83000D02*
D03*
Y101000D02*
D03*
X69000Y138000D02*
D03*
Y120000D02*
D03*
X182000Y136500D02*
D03*
Y118500D02*
D03*
X216000Y340000D02*
D03*
Y322000D02*
D03*
X237000Y322000D02*
D03*
Y340000D02*
D03*
X219000Y429000D02*
D03*
Y411000D02*
D03*
Y468000D02*
D03*
Y450000D02*
D03*
X254000Y472000D02*
D03*
Y490000D02*
D03*
D11*
X157000Y101000D02*
D03*
X139000D02*
D03*
X352000Y290500D02*
D03*
X334000D02*
D03*
X156000Y154250D02*
D03*
X138000D02*
D03*
X352000Y187000D02*
D03*
X334000D02*
D03*
X352000Y208000D02*
D03*
X334000D02*
D03*
X95000Y101000D02*
D03*
X113000D02*
D03*
X334000Y138000D02*
D03*
X352000D02*
D03*
X334000Y250000D02*
D03*
X352000D02*
D03*
X219000Y390000D02*
D03*
X237000D02*
D03*
X259000D02*
D03*
X277000D02*
D03*
X352000Y229000D02*
D03*
X334000D02*
D03*
D12*
X89000Y439000D02*
D03*
Y396300D02*
D03*
D13*
X177000Y378000D02*
D03*
X134300D02*
D03*
X177000Y426000D02*
D03*
X134300D02*
D03*
D14*
X317000Y322000D02*
D03*
X307500Y342000D02*
D03*
X326500D02*
D03*
X275000Y322000D02*
D03*
X265500Y342000D02*
D03*
X284500D02*
D03*
D15*
X305000Y125450D02*
D03*
Y138150D02*
D03*
Y150850D02*
D03*
Y163550D02*
D03*
Y176250D02*
D03*
Y188950D02*
D03*
Y201650D02*
D03*
Y214350D02*
D03*
Y227050D02*
D03*
Y239750D02*
D03*
Y252450D02*
D03*
Y265150D02*
D03*
Y277850D02*
D03*
Y290550D02*
D03*
X211000Y125450D02*
D03*
Y138150D02*
D03*
Y150850D02*
D03*
Y163550D02*
D03*
Y176250D02*
D03*
Y188950D02*
D03*
Y201650D02*
D03*
Y214350D02*
D03*
Y227050D02*
D03*
Y239750D02*
D03*
Y252450D02*
D03*
Y265150D02*
D03*
Y277850D02*
D03*
Y290550D02*
D03*
D16*
X266750Y432000D02*
D03*
Y441000D02*
D03*
Y450000D02*
D03*
X239250D02*
D03*
Y432000D02*
D03*
D17*
X54000Y231800D02*
X70750Y248550D01*
X54000Y206400D02*
X75000Y227400D01*
X223350Y214350D02*
X240000Y231000D01*
X211000Y214350D02*
X223350D01*
X65000Y138000D02*
X69000D01*
X40000Y163000D02*
X65000Y138000D01*
X40000Y163000D02*
Y268600D01*
X54000Y282600D01*
X322657Y342000D02*
X326500D01*
X240000Y259343D02*
X322657Y342000D01*
X305000Y150850D02*
X350850D01*
X305000Y163550D02*
X357550D01*
X424900Y122500D02*
X443000Y104400D01*
X349500Y122500D02*
X424900D01*
X334000Y138000D02*
X349500Y122500D01*
X414500Y118500D02*
X429000Y104000D01*
X240000Y231000D02*
Y259343D01*
X234000Y237000D02*
Y259000D01*
X224050Y227050D02*
X234000Y237000D01*
X211000Y227050D02*
X224050D01*
X237741Y179759D02*
X280000Y137500D01*
X237512Y179759D02*
X237741D01*
X271250Y237000D02*
Y246250D01*
X277500Y252500D01*
X303951D01*
X234150Y265150D02*
X284000Y315000D01*
X279000Y226750D02*
Y233750D01*
X263000Y321000D02*
X275000D01*
X284000Y315000D02*
Y341500D01*
X279000Y233750D02*
X284750Y239500D01*
X304250D01*
X280000Y137500D02*
X304350D01*
X315450Y125450D02*
X328000Y138000D01*
X305000Y125450D02*
X315450D01*
X328000Y138000D02*
X334000D01*
X357000Y250000D02*
X368000Y239000D01*
X352000Y250000D02*
X357000D01*
X180000Y90000D02*
X193000Y103000D01*
X106000Y90000D02*
X180000D01*
X96974Y99026D02*
X106000Y90000D01*
X182000Y86000D02*
X197000Y101000D01*
X56000Y86000D02*
X182000D01*
X37500Y104500D02*
X56000Y86000D01*
X211000Y265150D02*
X234150D01*
X402000Y208000D02*
X408000D01*
X357550Y163550D02*
X402000Y208000D01*
X429000Y82000D02*
Y104000D01*
Y82000D02*
X432000Y79000D01*
X443000D01*
X81000Y101000D02*
X95000D01*
X53000Y120000D02*
X69000D01*
X37000Y104000D02*
X53000Y120000D01*
X92736Y100000D02*
X97948D01*
X305050Y227000D02*
X334000D01*
X334000Y229000D02*
Y250000D01*
X138000Y102001D02*
Y154250D01*
Y102001D02*
X139000Y101001D01*
X113000D02*
X139000D01*
X139000Y101000D01*
X334000Y227000D02*
X334000Y227000D01*
X211000Y121000D02*
Y125450D01*
X305050Y227000D02*
X305050Y227000D01*
X334000Y187000D02*
Y189000D01*
Y208000D01*
X305050Y189000D02*
X334000D01*
X350850Y150850D02*
X395000Y195000D01*
X234000Y259000D02*
X286000Y311000D01*
X284000Y341500D02*
X284500Y342000D01*
X295000Y320000D02*
Y327000D01*
X286000Y311000D02*
X295000Y320000D01*
X96974Y99026D02*
X97948Y100000D01*
X197000Y101000D02*
X242000Y101000D01*
X193000Y103000D02*
Y103243D01*
X194757Y105000D01*
X195000D01*
X211000Y121000D01*
X156000Y142001D02*
Y154250D01*
X200850Y150850D02*
X211000D01*
X161000Y137000D02*
X161000D01*
X156000Y142001D02*
X161000Y137000D01*
X197050Y163550D02*
X211000D01*
X183000Y139000D02*
Y149500D01*
X197050Y163550D01*
X255750Y214350D02*
X305000D01*
X263500Y201650D02*
X305000D01*
X304451Y252999D02*
X305000Y252450D01*
X304750Y240000D02*
X305000Y239750D01*
X161000Y137000D02*
X162750Y135250D01*
X179250D01*
X183000Y139000D01*
X157000Y101000D02*
Y115250D01*
X160750Y119000D01*
X188250D01*
X193000Y123750D01*
Y143000D01*
X200850Y150850D01*
X320000Y322000D02*
X398000D01*
X447250Y272750D01*
X443400Y158400D02*
X447250Y162250D01*
Y272750D01*
X356001Y138000D02*
X388800D01*
X408000Y157200D01*
X433400Y158400D02*
X443400D01*
X395000Y195000D02*
X420400D01*
X433400Y208000D01*
X70750Y248550D02*
Y276750D01*
X115500Y321500D01*
X75000Y227400D02*
Y275343D01*
X117157Y317500D01*
X200500Y239750D02*
X211000D01*
X200800Y252450D02*
X211000D01*
X133450Y219250D02*
X176450Y176250D01*
X211000D01*
X196000Y257250D02*
X200800Y252450D01*
X196000Y257250D02*
Y280407D01*
X192000Y248250D02*
X200500Y239750D01*
X192000Y248250D02*
Y278750D01*
X135000Y267500D02*
X163500D01*
X182000Y249000D01*
X200550Y188950D02*
X211000D01*
X195000Y194500D02*
X200550Y188950D01*
X195000Y194500D02*
Y236000D01*
X182000Y249000D02*
X195000Y236000D01*
X148250Y241000D02*
X172000D01*
X182000Y231000D01*
Y194000D02*
Y231000D01*
X117157Y317500D02*
X153250D01*
X192000Y278750D01*
X115500Y321500D02*
X154907D01*
X196000Y280407D01*
X267000Y118500D02*
X414500D01*
X242000Y101250D02*
X249750D01*
X267000Y118500D01*
D18*
X135000Y340000D02*
X216000D01*
X89000Y386000D02*
X135000Y340000D01*
X134300Y364700D02*
Y378000D01*
Y364700D02*
X140000Y359000D01*
X258000D01*
X275000Y441000D02*
X281000Y435000D01*
Y407000D02*
Y435000D01*
X277000Y403000D02*
X281000Y407000D01*
X211000Y138150D02*
X240600D01*
X219000Y383000D02*
Y390000D01*
X212000Y376000D02*
X219000Y383000D01*
X179000Y376000D02*
X212000D01*
X258000Y359000D02*
X266000Y351000D01*
Y345000D02*
Y351000D01*
X273000Y358000D01*
X90300Y395000D02*
X119000D01*
X266750Y415750D02*
Y432000D01*
X239250Y421750D02*
Y432000D01*
X219000Y450000D02*
X239250D01*
X229000Y432000D02*
X239250D01*
X226000Y429000D02*
X229000Y432000D01*
X219000Y429000D02*
X226000D01*
X209000Y490000D02*
X254000D01*
X219000Y468000D02*
X234000D01*
X238000Y472000D01*
X254000D01*
X197000Y478000D02*
X209000Y490000D01*
X242000Y450000D02*
X260000Y432000D01*
X266750D01*
Y441000D02*
X275000D01*
X291000Y450000D02*
X308000Y433000D01*
X266750Y450000D02*
X291000D01*
X254000Y490000D02*
X288000D01*
X294200Y483800D01*
X308000D01*
X177000Y391000D02*
X197000Y411000D01*
Y478000D01*
X177000Y376000D02*
X212000Y411000D01*
X219000D01*
X177000Y378000D02*
Y391000D01*
X134300Y378000D02*
Y426000D01*
X237000Y390000D02*
Y419500D01*
X239250Y421750D01*
X237000Y390000D02*
X259000D01*
X277000D02*
Y403000D01*
X237000Y340000D02*
X242000D01*
X250000Y332000D01*
X89000Y386000D02*
Y396300D01*
X305000Y290550D02*
X333950D01*
X273000Y358000D02*
X298250Y358000D01*
X307500Y348750D01*
Y345000D02*
Y348750D01*
X305000Y290550D02*
Y301500D01*
X242000Y101250D02*
Y136750D01*
D19*
X54000Y282600D02*
Y308000D01*
X278850Y277850D02*
X286000D01*
X236571Y201500D02*
X261821Y176250D01*
X286600Y265150D02*
X305000D01*
X232350Y277850D02*
X251750Y297250D01*
X211000Y277850D02*
X232350D01*
X237000Y312000D02*
X251750Y297250D01*
X237000Y312000D02*
Y322000D01*
X240600Y138150D02*
X242000Y136750D01*
X286000Y277850D02*
X305000D01*
X322000Y172000D02*
X352000D01*
X317750Y176250D02*
X322000Y172000D01*
X305000Y176250D02*
X317750D01*
X239250Y450000D02*
X239250Y450000D01*
X239250Y432000D02*
X239250Y432000D01*
X254000Y490000D02*
X254000Y490000D01*
X219000Y468000D02*
X221000Y470000D01*
X239250Y450000D02*
X242000D01*
X352000Y172000D02*
Y227000D01*
X177000Y378000D02*
X179000Y376000D01*
X216000Y322000D02*
X237000D01*
X261821Y176250D02*
X305000D01*
X339350Y277850D02*
X352000Y290500D01*
X305000Y277850D02*
X339350D01*
X242000Y83000D02*
X260000D01*
X254000Y253000D02*
X278850Y277850D01*
X211150Y201500D02*
X231250D01*
X236571D01*
X231250D02*
Y208250D01*
X254000Y231000D01*
Y253000D01*
X157500Y326500D02*
X194000Y290000D01*
X210450D01*
X54000Y308000D02*
X94250D01*
X112750Y326500D01*
X157500D01*
X303250Y303250D02*
X305000Y301500D01*
D20*
X89000Y439000D02*
X104000D01*
X108000Y443000D01*
Y464000D01*
X168000Y439000D02*
X179000Y428000D01*
X168000Y439000D02*
Y464000D01*
D21*
X450000Y30000D02*
D03*
X30000D02*
D03*
X30000Y480000D02*
D03*
X450000D02*
D03*
D22*
X37000Y78600D02*
D03*
Y104000D02*
D03*
X443000Y104400D02*
D03*
Y79000D02*
D03*
X433400Y258800D02*
D03*
Y233400D02*
D03*
Y208000D02*
D03*
Y182600D02*
D03*
Y157200D02*
D03*
X408000D02*
D03*
Y182600D02*
D03*
Y208000D02*
D03*
Y233400D02*
D03*
Y258800D02*
D03*
X396000Y53200D02*
D03*
Y78600D02*
D03*
Y104000D02*
D03*
X54000Y308000D02*
D03*
Y206400D02*
D03*
Y181000D02*
D03*
Y257200D02*
D03*
Y282600D02*
D03*
Y231800D02*
D03*
D23*
X433100Y367000D02*
D03*
X356900D02*
D03*
X308000Y433000D02*
D03*
Y483800D02*
D03*
D24*
X82600Y464000D02*
D03*
X108000D02*
D03*
X142600Y464000D02*
D03*
X168000D02*
D03*
D25*
X135000Y267500D02*
D03*
Y218700D02*
D03*
D26*
X161250Y120000D02*
D03*
Y135000D02*
D03*
X148250Y241000D02*
D03*
X138000Y127250D02*
D03*
X135000Y191750D02*
D03*
Y294750D02*
D03*
D27*
X281000Y407000D02*
D03*
X303250Y303250D02*
D03*
X283250Y358500D02*
D03*
X285750Y176000D02*
D03*
X286000Y265750D02*
D03*
X251750Y297250D02*
D03*
X237512Y179759D02*
D03*
X263500Y202000D02*
D03*
X271250Y237000D02*
D03*
X279000Y226750D02*
D03*
X263000Y321000D02*
D03*
X286000Y277850D02*
D03*
X241250Y137500D02*
D03*
X368000Y239000D02*
D03*
X119000Y395000D02*
D03*
X81000Y101000D02*
D03*
X266750Y415750D02*
D03*
X236000Y470000D02*
D03*
X352000Y172000D02*
D03*
X250000Y332000D02*
D03*
X295000Y327000D02*
D03*
X255750Y214250D02*
D03*
X260000Y83000D02*
D03*
X231250Y201500D02*
D03*
M02*
