G04 Layer_Color=65535*
%FSLAX44Y44*%
%MOMM*%
G71*
G01*
G75*
%ADD17C,0.2000*%
%ADD18C,0.5000*%
%ADD20C,0.6000*%
%ADD31C,0.2500*%
D17*
X111500Y194700D02*
G03*
X158500Y194700I23500J0D01*
G01*
Y291500D02*
G03*
X111500Y291500I-23500J0D01*
G01*
X174000Y202000D02*
X190000D01*
X174000Y168000D02*
X190000D01*
X174000D02*
Y202000D01*
X190000Y168000D02*
Y202000D01*
X174000Y223000D02*
X190000D01*
X174000Y257000D02*
X190000D01*
Y223000D02*
Y257000D01*
X174000Y223000D02*
Y257000D01*
X131000Y93000D02*
Y109000D01*
X165000Y93000D02*
Y109000D01*
X131000Y93000D02*
X165000D01*
X131000Y109000D02*
X165000D01*
X326000Y282500D02*
Y298500D01*
X360000Y282500D02*
Y298500D01*
X326000Y282500D02*
X360000D01*
X326000Y298500D02*
X360000D01*
X234000Y109000D02*
X250000D01*
X234000Y75000D02*
X250000D01*
X234000D02*
Y109000D01*
X250000Y75000D02*
Y109000D01*
X130000Y146250D02*
Y162250D01*
X164000Y146250D02*
Y162250D01*
X130000Y146250D02*
X164000D01*
X130000Y162250D02*
X164000D01*
X326000Y179000D02*
Y195000D01*
X360000Y179000D02*
Y195000D01*
X326000Y179000D02*
X360000D01*
X326000Y195000D02*
X360000D01*
X326000Y200000D02*
Y216000D01*
X360000Y200000D02*
Y216000D01*
X326000Y200000D02*
X360000D01*
X326000Y216000D02*
X360000D01*
X104494Y441286D02*
X109828D01*
X104494Y393026D02*
X109828D01*
Y441286D01*
X80364Y383882D02*
X98364D01*
X68426Y441286D02*
X73506D01*
X68426Y393026D02*
Y441286D01*
Y393026D02*
X73506D01*
X179286Y357172D02*
Y362506D01*
X131026Y357172D02*
Y362506D01*
Y357172D02*
X179286D01*
X121882Y368636D02*
Y386636D01*
X179286Y393494D02*
Y398574D01*
X131026D02*
X179286D01*
X131026Y393494D02*
Y398574D01*
X179286Y405172D02*
Y410506D01*
X131026Y405172D02*
Y410506D01*
Y405172D02*
X179286D01*
X121882Y416636D02*
Y434636D01*
X179286Y441494D02*
Y446574D01*
X131026D02*
X179286D01*
X131026Y441494D02*
Y446574D01*
X299728Y313872D02*
X334018D01*
X299728Y350448D02*
X334018D01*
X299728Y313872D02*
Y350448D01*
X334018Y313872D02*
Y350448D01*
X257728Y313872D02*
X292018D01*
X257728Y350448D02*
X292018D01*
X257728Y313872D02*
Y350448D01*
X292018Y313872D02*
Y350448D01*
X87000Y109000D02*
X121000D01*
X87000Y93000D02*
X121000D01*
Y109000D01*
X87000Y93000D02*
Y109000D01*
X326000Y146000D02*
X360000D01*
X326000Y130000D02*
X360000D01*
Y146000D01*
X326000Y130000D02*
Y146000D01*
Y258000D02*
X360000D01*
X326000Y242000D02*
X360000D01*
Y258000D01*
X326000Y242000D02*
Y258000D01*
X77000Y112000D02*
Y146000D01*
X61000Y112000D02*
Y146000D01*
Y112000D02*
X77000D01*
X61000Y146000D02*
X77000D01*
X190000Y110500D02*
Y144500D01*
X174000Y110500D02*
Y144500D01*
Y110500D02*
X190000D01*
X174000Y144500D02*
X190000D01*
X211000Y398000D02*
X245000D01*
X211000Y382000D02*
X245000D01*
Y398000D01*
X211000Y382000D02*
Y398000D01*
X224000Y314000D02*
Y348000D01*
X208000Y314000D02*
Y348000D01*
Y314000D02*
X224000D01*
X208000Y348000D02*
X224000D01*
X251000Y398000D02*
X285000D01*
X251000Y382000D02*
X285000D01*
Y398000D01*
X251000Y382000D02*
Y398000D01*
X229000Y314000D02*
Y348000D01*
X245000Y314000D02*
Y348000D01*
X229000D02*
X245000D01*
X229000Y314000D02*
X245000D01*
X224000Y118500D02*
X292000D01*
X224000Y297500D02*
X292000D01*
Y118500D02*
Y297500D01*
X224000Y118500D02*
Y297500D01*
X248000Y425500D02*
X258000D01*
X248000Y456500D02*
X258000D01*
Y425500D02*
Y456500D01*
X248000Y425500D02*
Y456500D01*
X158500Y194700D02*
Y291500D01*
X111500Y194700D02*
Y291500D01*
X87082Y139572D02*
X148042D01*
X87082Y115442D02*
Y139572D01*
Y115442D02*
X148042D01*
Y139572D01*
X148296Y130174D02*
X154646D01*
X148042Y124586D02*
X154646D01*
X326000Y221000D02*
Y237000D01*
X360000Y221000D02*
Y237000D01*
X326000Y221000D02*
X360000D01*
X326000Y237000D02*
X360000D01*
X211000Y403000D02*
X227000D01*
X211000Y437000D02*
X227000D01*
Y403000D02*
Y437000D01*
X211000Y403000D02*
Y437000D01*
Y442000D02*
X227000D01*
X211000Y476000D02*
X227000D01*
Y442000D02*
Y476000D01*
X211000Y442000D02*
Y476000D01*
X246000Y498000D02*
X262000D01*
X246000Y464000D02*
X262000D01*
X246000D02*
Y498000D01*
X262000Y464000D02*
Y498000D01*
X371665Y231331D02*
X369998Y232997D01*
X366666D01*
X365000Y231331D01*
Y224666D01*
X366666Y223000D01*
X369998D01*
X371665Y224666D01*
X374997Y223000D02*
X378329D01*
X376663D01*
Y232997D01*
X374997Y231331D01*
X261915Y106831D02*
X260248Y108497D01*
X256916D01*
X255250Y106831D01*
Y100166D01*
X256916Y98500D01*
X260248D01*
X261915Y100166D01*
X271911Y108497D02*
X268579Y106831D01*
X265247Y103498D01*
Y100166D01*
X266913Y98500D01*
X270245D01*
X271911Y100166D01*
Y101832D01*
X270245Y103498D01*
X265247D01*
X237665Y413331D02*
X235998Y414997D01*
X232666D01*
X231000Y413331D01*
Y406666D01*
X232666Y405000D01*
X235998D01*
X237665Y406666D01*
X240997Y405000D02*
X244329D01*
X242663D01*
Y414997D01*
X240997Y413331D01*
X249327D02*
X250994Y414997D01*
X254326D01*
X255992Y413331D01*
Y406666D01*
X254326Y405000D01*
X250994D01*
X249327Y406666D01*
Y413331D01*
X371665Y210331D02*
X369998Y211997D01*
X366666D01*
X365000Y210331D01*
Y203666D01*
X366666Y202000D01*
X369998D01*
X371665Y203666D01*
X374997D02*
X376663Y202000D01*
X379995D01*
X381661Y203666D01*
Y210331D01*
X379995Y211997D01*
X376663D01*
X374997Y210331D01*
Y208664D01*
X376663Y206998D01*
X381661D01*
X371665Y189331D02*
X369998Y190997D01*
X366666D01*
X365000Y189331D01*
Y182666D01*
X366666Y181000D01*
X369998D01*
X371665Y182666D01*
X374997Y189331D02*
X376663Y190997D01*
X379995D01*
X381661Y189331D01*
Y187664D01*
X379995Y185998D01*
X381661Y184332D01*
Y182666D01*
X379995Y181000D01*
X376663D01*
X374997Y182666D01*
Y184332D01*
X376663Y185998D01*
X374997Y187664D01*
Y189331D01*
X376663Y185998D02*
X379995D01*
X371665Y292830D02*
X369999Y294496D01*
X366666D01*
X365000Y292830D01*
Y286166D01*
X366666Y284500D01*
X369999D01*
X371665Y286166D01*
X381662Y294496D02*
X374997D01*
Y289498D01*
X378329Y291164D01*
X379995D01*
X381662Y289498D01*
Y286166D01*
X379995Y284500D01*
X376663D01*
X374997Y286166D01*
X114665Y156580D02*
X112999Y158247D01*
X109666D01*
X108000Y156580D01*
Y149916D01*
X109666Y148250D01*
X112999D01*
X114665Y149916D01*
X117997Y158247D02*
X124661D01*
Y156580D01*
X117997Y149916D01*
Y148250D01*
X176665Y103331D02*
X174998Y104997D01*
X171666D01*
X170000Y103331D01*
Y96666D01*
X171666Y95000D01*
X174998D01*
X176665Y96666D01*
X184995Y95000D02*
Y104997D01*
X179997Y99999D01*
X186661D01*
X273665Y474331D02*
X271999Y475997D01*
X268666D01*
X267000Y474331D01*
Y467666D01*
X268666Y466000D01*
X271999D01*
X273665Y467666D01*
X276997Y466000D02*
X280329D01*
X278663D01*
Y475997D01*
X276997Y474331D01*
X291992Y466000D02*
X285327D01*
X291992Y472665D01*
Y474331D01*
X290326Y475997D01*
X286994D01*
X285327Y474331D01*
X217665Y489331D02*
X215998Y490997D01*
X212666D01*
X211000Y489331D01*
Y482666D01*
X212666Y481000D01*
X215998D01*
X217665Y482666D01*
X220997Y481000D02*
X224329D01*
X222663D01*
Y490997D01*
X220997Y489331D01*
X229328Y481000D02*
X232660D01*
X230994D01*
Y490997D01*
X229328Y489331D01*
X180665Y271081D02*
X178998Y272747D01*
X175666D01*
X174000Y271081D01*
Y264416D01*
X175666Y262750D01*
X178998D01*
X180665Y264416D01*
X183997Y271081D02*
X185663Y272747D01*
X188995D01*
X190661Y271081D01*
Y269415D01*
X188995Y267748D01*
X187329D01*
X188995D01*
X190661Y266082D01*
Y264416D01*
X188995Y262750D01*
X185663D01*
X183997Y264416D01*
X181915Y215831D02*
X180248Y217497D01*
X176916D01*
X175250Y215831D01*
Y209166D01*
X176916Y207500D01*
X180248D01*
X181915Y209166D01*
X191911Y207500D02*
X185247D01*
X191911Y214165D01*
Y215831D01*
X190245Y217497D01*
X186913D01*
X185247Y215831D01*
X174000Y149500D02*
Y159497D01*
X178998D01*
X180664Y157830D01*
Y154498D01*
X178998Y152832D01*
X174000D01*
X177332D02*
X180664Y149500D01*
X188995D02*
Y159497D01*
X183997Y154498D01*
X190661D01*
X230000Y353000D02*
Y362997D01*
X234998D01*
X236665Y361331D01*
Y357999D01*
X234998Y356332D01*
X230000D01*
X233332D02*
X236665Y353000D01*
X239997Y361331D02*
X241663Y362997D01*
X244995D01*
X246661Y361331D01*
Y359665D01*
X244995Y357999D01*
X246661Y356332D01*
Y354666D01*
X244995Y353000D01*
X241663D01*
X239997Y354666D01*
Y356332D01*
X241663Y357999D01*
X239997Y359665D01*
Y361331D01*
X241663Y357999D02*
X244995D01*
X211000Y368000D02*
Y377997D01*
X215998D01*
X217665Y376331D01*
Y372998D01*
X215998Y371332D01*
X211000D01*
X214332D02*
X217665Y368000D01*
X227661Y377997D02*
X220997D01*
Y372998D01*
X224329Y374664D01*
X225995D01*
X227661Y372998D01*
Y369666D01*
X225995Y368000D01*
X222663D01*
X220997Y369666D01*
X208000Y353000D02*
Y362997D01*
X212998D01*
X214664Y361331D01*
Y357998D01*
X212998Y356332D01*
X208000D01*
X211332D02*
X214664Y353000D01*
X224661Y362997D02*
X221329Y361331D01*
X217997Y357998D01*
Y354666D01*
X219663Y353000D01*
X222995D01*
X224661Y354666D01*
Y356332D01*
X222995Y357998D01*
X217997D01*
X40000Y135000D02*
Y144997D01*
X44998D01*
X46665Y143331D01*
Y139998D01*
X44998Y138332D01*
X40000D01*
X43332D02*
X46665Y135000D01*
X49997Y143331D02*
X51663Y144997D01*
X54995D01*
X56661Y143331D01*
Y141664D01*
X54995Y139998D01*
X53329D01*
X54995D01*
X56661Y138332D01*
Y136666D01*
X54995Y135000D01*
X51663D01*
X49997Y136666D01*
X365000Y244000D02*
Y253997D01*
X369998D01*
X371665Y252331D01*
Y248998D01*
X369998Y247332D01*
X365000D01*
X368332D02*
X371665Y244000D01*
X381661D02*
X374997D01*
X381661Y250665D01*
Y252331D01*
X379995Y253997D01*
X376663D01*
X374997Y252331D01*
X365000Y132000D02*
Y141997D01*
X369998D01*
X371665Y140331D01*
Y136998D01*
X369998Y135332D01*
X365000D01*
X368332D02*
X371665Y132000D01*
X374997D02*
X378329D01*
X376663D01*
Y141997D01*
X374997Y140331D01*
X108000Y78000D02*
Y87997D01*
X112998D01*
X114664Y86331D01*
Y82998D01*
X112998Y81332D01*
X108000D01*
X111332D02*
X114664Y78000D01*
X117997D02*
X121329D01*
X119663D01*
Y87997D01*
X117997Y86331D01*
X268000Y368000D02*
Y377997D01*
X272998D01*
X274664Y376331D01*
Y372998D01*
X272998Y371332D01*
X268000D01*
X271332D02*
X274664Y368000D01*
X277997Y377997D02*
X284661D01*
Y376331D01*
X277997Y369666D01*
Y368000D01*
X106250Y132997D02*
Y131331D01*
X109582Y127998D01*
X112914Y131331D01*
Y132997D01*
X109582Y127998D02*
Y123000D01*
X122911D02*
X116247D01*
X122911Y129664D01*
Y131331D01*
X121245Y132997D01*
X117913D01*
X116247Y131331D01*
X276500Y433247D02*
Y424916D01*
X278166Y423250D01*
X281498D01*
X283165Y424916D01*
Y433247D01*
X293161Y423250D02*
X286497D01*
X293161Y429915D01*
Y431581D01*
X291495Y433247D01*
X288163D01*
X286497Y431581D01*
X190000Y307997D02*
Y299666D01*
X191666Y298000D01*
X194998D01*
X196665Y299666D01*
Y307997D01*
X199997Y298000D02*
X203329D01*
X201663D01*
Y307997D01*
X199997Y306331D01*
X264664Y356666D02*
Y363330D01*
X262998Y364997D01*
X259666D01*
X258000Y363330D01*
Y356666D01*
X259666Y355000D01*
X262998D01*
X261332Y358332D02*
X264664Y355000D01*
X262998D02*
X264664Y356666D01*
X267997Y355000D02*
X271329D01*
X269663D01*
Y364997D01*
X267997Y363330D01*
X326665Y356666D02*
Y363331D01*
X324998Y364997D01*
X321666D01*
X320000Y363331D01*
Y356666D01*
X321666Y355000D01*
X324998D01*
X323332Y358332D02*
X326665Y355000D01*
X324998D02*
X326665Y356666D01*
X329997Y355000D02*
X333329D01*
X331663D01*
Y364997D01*
X329997Y363331D01*
X189000Y444247D02*
Y434250D01*
X193998D01*
X195665Y435916D01*
Y442581D01*
X193998Y444247D01*
X189000D01*
X198997Y442581D02*
X200663Y444247D01*
X203995D01*
X205661Y442581D01*
Y440914D01*
X203995Y439248D01*
X202329D01*
X203995D01*
X205661Y437582D01*
Y435916D01*
X203995Y434250D01*
X200663D01*
X198997Y435916D01*
X162500Y351497D02*
Y341500D01*
X167498D01*
X169165Y343166D01*
Y349831D01*
X167498Y351497D01*
X162500D01*
X179161Y341500D02*
X172497D01*
X179161Y348164D01*
Y349831D01*
X177495Y351497D01*
X174163D01*
X172497Y349831D01*
X50000Y403997D02*
Y394000D01*
X54998D01*
X56665Y395666D01*
Y402331D01*
X54998Y403997D01*
X50000D01*
X59997Y394000D02*
X63329D01*
X61663D01*
Y403997D01*
X59997Y402331D01*
X128500Y247497D02*
Y245831D01*
X131832Y242498D01*
X135164Y245831D01*
Y247497D01*
X131832Y242498D02*
Y237500D01*
X138497D02*
X141829D01*
X140163D01*
Y247497D01*
X138497Y245831D01*
D18*
X331000Y488994D02*
Y469000D01*
Y475664D01*
X344329Y488994D01*
X334332Y478997D01*
X344329Y469000D01*
X350994Y488994D02*
Y469000D01*
X364323D01*
X380984Y488994D02*
X374319D01*
X370987Y485661D01*
Y472332D01*
X374319Y469000D01*
X380984D01*
X384316Y472332D01*
Y485661D01*
X380984Y488994D01*
X390981D02*
X404310D01*
X397645D01*
Y469000D01*
X410974Y488994D02*
X424303D01*
Y485661D01*
X410974Y472332D01*
Y469000D01*
X424303D01*
D20*
X237000Y287500D02*
G03*
X237000Y287500I-3000J0D01*
G01*
D31*
X212250Y299050D02*
G03*
X212250Y299050I-1250J0D01*
G01*
X268000Y423250D02*
G03*
X268000Y423250I-1250J0D01*
G01*
M02*
